<?xml version="1.0" standalone="no"?>
<!DOCTYPE svg PUBLIC "-//W3C//DTD SVG 20010904//EN"
 "http://www.w3.org/TR/2001/REC-SVG-20010904/DTD/svg10.dtd">
<svg version="1.0" xmlns="http://www.w3.org/2000/svg"
 width="96.000000pt" height="96.000000pt" viewBox="0 0 96.000000 96.000000"
 preserveAspectRatio="xMidYMid meet">
<metadata>
Created by potrace 1.14, written by Peter Selinger 2001-2017
</metadata>
<g transform="translate(0.000000,96.000000) scale(0.100000,-0.100000)"
fill="#000000" stroke="none">
<path d="M525 868 l-6 -33 -67 -2 c-170 -4 -333 -115 -378 -258 -10 -30 -15
-57 -13 -60 7 -7 58 -6 102 1 31 5 45 1 79 -21 39 -26 46 -27 90 -18 54 11
108 -5 108 -31 0 -18 -38 -218 -42 -221 -2 -2 -28 -19 -58 -39 -52 -34 -59
-36 -137 -36 l-83 0 0 -30 0 -30 323 0 323 0 0 30 0 30 -104 0 c-91 0 -108 3
-135 22 -47 32 -68 59 -62 78 3 9 12 55 20 100 15 86 24 100 63 100 27 0 82
-29 82 -43 0 -6 30 -7 71 -3 66 7 73 6 104 -18 19 -14 45 -26 59 -26 28 0 30
7 27 100 -4 128 -106 266 -243 333 -66 31 -68 33 -65 67 2 31 -1 35 -25 38
-23 3 -28 -1 -33 -30z m-25 -94 c0 -1 -18 -13 -40 -28 -59 -39 -107 -94 -137
-157 l-26 -56 -35 23 c-24 16 -49 24 -79 24 l-44 0 18 31 c40 68 127 128 225
153 41 10 118 17 118 10z m154 -142 c15 -47 19 -80 17 -140 l-1 -33 -31 22
c-17 12 -51 24 -76 27 -42 5 -45 6 -40 31 3 14 13 70 23 125 l19 99 37 -42
c20 -23 44 -63 52 -89z"/>
</g>
</svg>
